<svg height="512" viewBox="0 0 60 58" width="512" xmlns="http://www.w3.org/2000/svg"><g id="Page-1" fill="none" fill-rule="evenodd"><g id="045---Wisdom" fill-rule="nonzero"><path id="Shape" d="m48 23c-.0072169 4.5416919-3.0688526 8.5103269-7.46 9.67-.8282816.2221751-1.682444.3331489-2.54.33-2.2785518.0041347-4.48907-.7762559-6.26-2.21l1.22-4.4c.0887084-.3338093.0163775-.6898949-.1955388-.9626389-.2119162-.2727441-.5390835-.4308274-.8844612-.4273611h-3.76c-.3453777-.0034663-.672545.154617-.8844612.4273611-.2119163.272744-.2842472.6288296-.1955388.9626389l1.22 4.4c-1.77093 1.4337441-3.9814482 2.2141347-6.26 2.21-.857556.0031489-1.7117184-.1078249-2.54-.33-4.6767059-1.2308863-7.8024855-5.6320162-7.4240672-10.4531633.3784183-4.821147 4.1525891-8.6806906 8.9640672-9.1668367.33-.03.66-.05 1-.05h16c.34 0 .67.02 1 .05 5.1085645.5162284 8.9972802 4.8154196 9 9.95z" fill="#c7804c"/><path id="Shape" d="m47 37c.0039017 3.5223721-1.0901678 6.9583794-3.13 9.83-1.6744073 2.2483731-4.1897526 3.7207704-6.97 4.08-.3.04-.6.07-.9.09.13-.14.25-.28.38-.42 3.0672114-3.7614509 4.7038796-8.4872417 4.62-13.34.0015722-1.5349679-.1525499-3.0661372-.46-4.57 1.8590423-.4844869 3.5371385-1.4989881 4.83-2.92 1.0781111 2.2645555 1.635089 4.7419112 1.63 7.25z" fill="#a1693e"/><path id="Shape" d="m41 37.24c.0838796 4.8527583-1.5527886 9.5785491-4.62 13.34-.13.14-.25.28-.38.42-.12.01-11.88.01-12 0-.12-.13-.25-.27-.37-.41-3.0802929-3.7586516-4.7216426-8.4912689-4.63-13.35-.0015722-1.5349679.1525499-3.0661372.46-4.57.8282816.2221751 1.682444.3331489 2.54.33 2.2785518.0041347 4.48907-.7762559 6.26-2.21l.66 2.4c.14.48.58.81 1.08.81s.94-.33 1.08-.81l.66-2.4c1.77093 1.4337441 3.9814482 2.2141347 6.26 2.21.857556.0031489 1.7117184-.1078249 2.54-.33.3074501 1.5038628.4615722 3.0350321.46 4.57z" fill="#f4edc7"/><path id="Shape" d="m24 51c-.3-.02-.6-.05-.9-.09-2.7802474-.3592296-5.2955927-1.8316269-6.97-4.08-3.5498325-5.0039275-4.1233108-11.5339346-1.5-17.08 1.2928615 1.4210119 2.9709577 2.4355131 4.83 2.92-.3074501 1.5038628-.4615722 3.0350321-.46 4.57-.0916426 4.8587311 1.5497071 9.5913484 4.63 13.35.12.14.25.28.37.41z" fill="#a1693e"/><path id="Shape" d="m38 54c.0053163 1.2344383-.7492779 2.3449786-1.8989156 2.7946442-1.1496378.4496657-2.4574543.1458101-3.2910844-.7646442-.4287764 1.1825897-1.5520781 1.9701668-2.81 1.9701668s-2.3812236-.7875771-2.81-1.9701668c-.8336301.9104543-2.1414466 1.2143099-3.2910844.7646442-1.1496377-.4496656-1.9042319-1.5602059-1.8989156-2.7946442 0 0 0-2.13 1.1-3.09.3.04.6.07.9.09.12.01 11.88.01 12 0 .3-.02.6-.05.9-.09 1.1.96 1.1 3.09 1.1 3.09z" fill="#a1693e"/><path id="Shape" d="m39 6.62v6.43c-.33-.03-.66-.05-1-.05h-16c-.34 0-.67.02-1 .05v-6.43z" fill="#393f4b"/><path id="Shape" d="m44.75 11.55c-.1839835.2793852-.4954809.4482694-.83.45-.1966104.0023152-.3889872-.0571467-.55-.17-.8570487-.5649645-1.3720237-1.5234947-1.37-2.55v-3.47l1.26-.34c.4443621-.10865355.7526198-.51272108.74-.97v4.78c.0001625.35850681.1805213.69292216.48.89.2206164.145718.3734668.3739343.4242339.6334108.0507672.2594764-.0048029.5284706-.1542339.7465892z" fill="#f1d24b"/><path id="Shape" d="m27.61 25.13c1.1495421-2.9930293-.2428073-6.3624024-3.1698696-7.6708283-2.9270622-1.3084259-6.3662671-.0988056-7.8298098 2.7538623-1.4635427 2.852668-.440134 6.3518031 2.3299267 7.966249 2.7700606 1.6144458 6.3190517.7801953 8.0797527-1.899283" fill="#f1d24b"/><path id="Shape" d="m22 30c-3.0639078-.0002435-5.7716041-1.9930352-6.6827543-4.9183277-.9111503-2.9252925.1860128-6.103196 2.7078634-7.8432537 2.5218506-1.7400576 5.8822659-1.6378492 8.2937036.2522565s3.3134369 5.1288146 2.2261873 7.9933249c-.0130157.0341912-.0280419.0675828-.045.1l-.59 1.15c-.0158753.0313418-.0335723.0617271-.053.091-1.2877963 1.9828646-3.4926476 3.1780845-5.857 3.175zm0-12c-2.3863328-.0020286-4.4415042 1.6825642-4.9078466 4.0228875-.4663425 2.3403233.7861369 4.6840122 2.9909802 5.5968402 2.2048432.9128279 4.7474503.1403442 6.0718664-1.8447277l.538-1.049c.5641868-1.53391.343082-3.2467343-.5921374-4.5870892s-2.4664861-2.1390266-4.1008626-2.1389108z" fill="#5f3e23"/><circle id="Oval" cx="22" cy="23" fill="#2c2f38" r="2"/><path id="Shape" d="m32.98 26.28c1.7336201 2.6272204 5.2184859 3.4410841 7.9364424 1.8534952 2.7179564-1.5875888 3.7208784-5.0228198 2.2840571-7.8234036-1.4368213-2.8005839-4.8121688-3.9895722-7.687025-2.707805-2.8748563 1.2817672-4.2463637 4.5871615-3.1234745 7.5277134" fill="#f1d24b"/><circle id="Oval" cx="38" cy="23" fill="#2c2f38" r="2"/><path id="Shape" d="m59 52h-58c-.55228475 0-1-.4477153-1-1s.44771525-1 1-1h58c.5522847 0 1 .4477153 1 1s-.4477153 1-1 1z" fill="#5f3e23"/><path id="Shape" d="m44 4.5c.0126198.45727892-.2956379.86134645-.74.97l-1.26.34-3 .81-8.75 2.35c-.1642682.03998702-.3357318.03998702-.5 0l-8.75-2.35-4.26-1.15c-.4448894-.11149979-.7568951-.51135113-.7568951-.97s.3120057-.85850021.7568951-.97l13.01-3.5c.1642682-.03998702.3357318-.03998702.5 0l11.75 3.16 1.26.34c.4443621.10865355.7526198.51272108.74.97z" fill="#464f5e"/><path id="Shape" d="m32.143 26.827c-.0194277-.0292729-.0371247-.0596582-.053-.091l-.59-1.15c-.0169581-.0324172-.0319843-.0658088-.045-.1-1.3371108-3.489458.2885395-7.415278 3.701123-8.937926 3.4125834-1.522648 7.4200705-.1102568 9.1238577 3.2155952 1.7037872 3.3258521.5087346 7.4034312-2.7207797 9.2834364-3.2295144 1.8800052-7.3654079.905743-9.416201-2.2181056zm.857-3.827c-.0004501.5889532.1034908 1.1733246.307 1.726l.538 1.049c1.3785975 2.0594422 4.0577576 2.7982714 6.2970782 1.7365389 2.2393207-1.0617326 3.362996-3.6036062 2.6410783-5.974401-.7219176-2.3707948-3.0715605-3.8550273-5.5225831-3.4885292-2.4510227.3664981-4.2637298 2.4731211-4.2605734 4.9513913z" fill="#5f3e23"/><path id="Shape" d="m32.96 26.39-1.22 4.4-.66 2.4c-.14.48-.58.81-1.08.81s-.94-.33-1.08-.81l-.66-2.4-1.22-4.4c-.0887084-.3338093-.0163775-.6898949.1955388-.9626389.2119162-.2727441.5390835-.4308274.8844612-.4273611h3.76c.3453777-.0034663.672545.154617.8844612.4273611.2119163.272744.2842472.6288296.1955388.9626389z" fill="#ed9a00"/></g></g></svg>