<?xml version="1.0" standalone="no"?>
<!DOCTYPE svg PUBLIC "-//W3C//DTD SVG 20010904//EN"
 "http://www.w3.org/TR/2001/REC-SVG-20010904/DTD/svg10.dtd">
<svg version="1.0" xmlns="http://www.w3.org/2000/svg"
 width="550.000000pt" height="807.000000pt" viewBox="0 0 550.000000 807.000000"
 preserveAspectRatio="xMidYMid meet">
<metadata>
Created by potrace 1.16, written by Peter Selinger 2001-2019
</metadata>
<g transform="translate(0.000000,807.000000) scale(0.100000,-0.100000)"
fill="#000000" stroke="none">
<path d="M2717 7933 c-3 -16 -12 -35 -19 -45 -12 -14 -260 -158 -302 -174 -34
-13 -14 22 45 77 67 61 68 72 12 95 -18 8 -36 21 -40 29 -8 23 -31 18 -35 -7
-2 -18 -10 -23 -33 -24 -41 -1 -85 -21 -85 -38 0 -24 -39 -45 -74 -39 -27 4
-35 1 -49 -21 -9 -14 -38 -39 -65 -56 -26 -18 -57 -47 -70 -66 -23 -36 -40
-42 -60 -22 -19 19 -15 31 23 75 47 56 46 67 -7 59 -24 -4 -45 -12 -47 -19 -2
-7 -33 -40 -69 -74 -64 -60 -66 -64 -68 -113 -1 -57 -7 -66 -46 -75 -24 -6
-30 -3 -45 24 -21 37 -38 39 -54 9 -7 -13 -30 -47 -52 -76 -33 -44 -41 -63
-46 -117 -11 -103 -62 -136 -104 -66 -25 42 -21 82 13 132 25 38 27 44 12 48
-36 7 -44 23 -37 76 l6 50 -41 -40 c-23 -22 -55 -60 -72 -84 -21 -30 -46 -50
-83 -66 -60 -27 -99 -69 -116 -125 -7 -22 -15 -40 -19 -40 -11 0 -30 48 -30
75 0 22 -2 24 -24 13 -18 -8 -37 -8 -71 1 -25 6 -50 9 -56 6 -14 -9 -10 -88 6
-109 30 -40 19 -73 -46 -139 -33 -34 -88 -100 -122 -147 -66 -92 -121 -158
-149 -178 -16 -12 -16 -10 -4 30 8 24 19 58 26 76 13 36 8 62 -14 62 -16 0
-46 -69 -52 -120 -11 -91 -24 -110 -76 -110 -21 0 -27 -10 -51 -83 -15 -46
-27 -95 -27 -110 0 -15 -12 -62 -26 -104 -23 -66 -28 -100 -31 -213 -2 -74 -9
-159 -15 -188 -10 -48 -10 -54 10 -75 28 -29 30 -73 5 -62 -34 15 -132 18
-148 5 -21 -18 -19 -53 5 -68 16 -9 20 -23 20 -62 0 -28 3 -50 8 -50 15 0 30
16 33 34 2 11 9 21 16 23 17 6 27 -41 14 -65 -6 -12 -11 -52 -11 -91 0 -67
-14 -101 -41 -101 -16 0 -10 -72 8 -85 15 -11 15 -13 -5 -24 -22 -12 -31 -41
-12 -41 5 0 14 -9 20 -20 8 -15 6 -24 -10 -40 -17 -17 -20 -33 -20 -112 0 -51
5 -155 11 -232 7 -97 7 -148 -1 -169 -5 -17 -13 -81 -17 -144 -5 -97 -4 -116
10 -131 14 -15 18 -52 22 -213 7 -250 12 -296 34 -317 43 -41 72 -115 74 -192
4 -91 12 -107 68 -134 73 -36 80 -53 95 -241 15 -188 23 -239 64 -415 16 -69
34 -150 40 -182 6 -31 16 -58 23 -61 20 -7 13 122 -16 288 -43 249 -51 339
-53 605 -1 140 -7 296 -14 345 -6 50 -13 139 -15 199 -3 59 -9 114 -14 120
-17 20 -26 127 -12 135 27 17 48 515 29 686 -13 120 -13 120 -41 123 -38 5
-34 26 14 73 41 40 41 41 36 97 -4 31 -9 72 -13 90 -5 27 0 43 30 91 22 37 36
72 36 92 0 35 37 99 58 99 7 0 15 8 19 18 4 9 19 31 34 49 15 17 35 45 45 62
12 21 26 31 42 31 36 0 98 36 227 133 66 49 158 108 205 131 74 36 94 41 155
42 39 0 89 6 112 13 33 11 57 11 121 2 44 -7 91 -10 104 -7 12 3 97 10 188 16
206 14 351 34 449 65 100 31 136 37 196 35 28 -1 169 -5 315 -10 146 -4 351
-17 455 -29 105 -11 294 -27 420 -36 255 -17 327 -31 396 -76 96 -61 154 -145
198 -284 12 -38 36 -87 52 -107 38 -48 38 -74 -1 -83 -16 -4 -32 -11 -35 -16
-8 -12 31 -213 57 -297 21 -71 55 -143 94 -202 20 -31 22 -42 15 -91 -11 -87
3 -191 53 -375 37 -139 50 -210 71 -399 22 -193 29 -233 46 -251 11 -11 24
-36 29 -55 15 -51 13 -735 -2 -762 -15 -28 -14 -228 2 -257 26 -49 96 13 141
127 21 53 23 75 24 243 1 180 8 246 27 284 8 15 18 17 49 13 29 -4 45 0 62 14
l22 19 -24 18 c-13 9 -40 32 -59 50 -30 28 -34 37 -29 66 3 18 19 56 36 83 44
72 70 154 82 258 21 197 41 650 44 1015 3 373 2 388 -20 485 -13 55 -26 141
-28 192 -5 76 -12 108 -46 191 -66 164 -72 244 -27 371 9 24 16 53 16 64 0 21
-76 101 -89 93 -4 -3 -35 23 -69 57 -63 64 -101 132 -102 180 0 16 -14 47 -34
73 -52 68 -55 115 -12 215 5 12 -4 20 -38 33 -32 12 -55 31 -78 63 -38 53 -81
73 -153 73 -98 0 -150 34 -119 79 9 12 27 27 41 32 21 8 24 13 18 42 -10 44
-11 44 -43 14 -36 -35 -51 -34 -63 3 -6 17 -14 30 -17 30 -16 0 -178 -53 -187
-61 -5 -5 -25 -9 -45 -9 -51 0 -73 25 -65 76 9 53 -15 66 -125 72 -120 6 -186
44 -160 93 10 17 7 19 -32 19 -24 0 -59 1 -78 3 l-35 2 0 -85 0 -85 -52 -3
c-29 -2 -75 1 -103 6 -32 6 -66 6 -94 -1 -37 -8 -49 -7 -71 7 -24 16 -55 70
-55 95 0 22 33 41 71 41 33 0 46 -7 79 -40 48 -49 64 -45 87 24 12 34 34 66
66 97 51 50 61 87 33 125 -14 18 -16 17 -35 -26 -11 -25 -21 -51 -21 -57 0 -7
-9 -22 -21 -34 l-20 -20 -44 40 c-41 38 -49 41 -100 41 -49 0 -55 2 -61 24 -9
38 -90 70 -157 63 -53 -7 -117 6 -117 23 0 4 -33 11 -72 15 -40 3 -80 8 -89
11 -12 3 -18 -4 -22 -23z m-608 -340 c-73 -190 -118 -328 -109 -337 17 -17 11
-30 -7 -14 -10 8 -26 18 -36 21 -28 10 -30 33 -5 74 13 21 41 77 62 125 44 98
127 213 95 131z m2333 -415 c9 -8 18 -36 21 -67 6 -51 5 -55 -27 -87 -35 -35
-63 -43 -84 -22 -20 20 -13 46 18 68 35 25 39 55 9 70 -20 11 -20 12 -3 31 20
22 43 24 66 7z"/>
<path d="M3353 4614 c-4 -10 -16 -12 -44 -8 -28 5 -45 2 -57 -8 -9 -8 -32 -20
-50 -26 -42 -14 -122 -73 -157 -114 -33 -39 -30 -78 7 -96 24 -11 43 -9 145
16 131 33 388 125 416 150 13 11 17 27 15 56 l-3 39 -133 2 c-106 2 -135 0
-139 -11z"/>
<path d="M1235 4470 c-57 -10 -88 -39 -83 -79 3 -23 11 -28 68 -43 181 -50
336 -70 412 -55 48 10 84 56 68 87 -13 24 -65 52 -140 74 -65 20 -253 29 -325
16z"/>
<path d="M3360 4124 c-36 -14 -92 -45 -125 -69 -33 -25 -68 -45 -78 -45 -29 0
-67 -45 -67 -80 0 -44 22 -38 86 22 65 61 86 59 94 -13 7 -57 47 -125 88 -151
l32 -20 0 51 c0 40 -5 55 -24 74 -27 27 -26 65 4 92 10 9 16 23 14 30 -6 15
16 20 118 30 66 6 69 6 93 -23 32 -38 74 -47 98 -21 10 11 15 24 12 29 -9 14
-3 13 60 -11 31 -12 71 -34 89 -49 20 -18 49 -31 78 -35 45 -7 47 -6 54 20 4
16 2 35 -3 44 -15 25 -87 61 -207 104 -103 38 -119 40 -231 43 -106 2 -127 -1
-185 -22z"/>
<path d="M1580 4132 c0 -5 22 -23 48 -40 26 -17 71 -56 99 -87 46 -50 56 -56
85 -53 21 2 34 9 36 19 5 29 -61 102 -118 131 -56 27 -150 46 -150 30z"/>
<path d="M1380 4021 c-8 -5 -47 -11 -87 -14 -40 -3 -89 -14 -109 -23 -20 -10
-52 -18 -71 -18 -19 -1 -37 -6 -41 -12 -4 -5 -23 -21 -42 -34 -45 -30 -90 -78
-90 -95 0 -7 8 -23 18 -35 15 -18 24 -21 56 -15 30 6 40 14 48 36 5 15 19 31
31 35 12 3 31 14 42 24 28 25 80 50 104 50 18 0 19 -3 9 -31 -34 -98 47 -247
126 -232 26 5 27 8 21 41 -6 33 -6 34 22 30 15 -3 36 -8 45 -12 18 -8 46 15
80 64 17 25 18 25 33 5 25 -32 15 -67 -22 -77 -38 -10 -84 -61 -60 -66 30 -6
86 26 93 52 3 14 12 26 20 26 7 0 23 14 36 30 28 39 100 74 138 68 34 -5 36 1
15 42 -23 45 -64 68 -219 121 -147 50 -170 55 -196 40z m155 -116 c31 -30 32
-53 1 -64 -12 -5 -33 -26 -44 -46 -22 -35 -22 -36 -74 -30 -68 8 -106 23 -119
46 -19 36 6 57 104 88 50 16 96 30 100 30 4 1 19 -10 32 -24z"/>
<path d="M2142 1902 c-51 -25 -53 -26 -81 -9 -42 25 -54 22 -113 -29 -107 -93
-216 -121 -346 -89 -85 20 -123 14 -156 -26 -30 -36 -50 -126 -43 -195 5 -48
4 -52 -24 -68 -16 -9 -29 -21 -29 -25 0 -14 79 -81 106 -91 20 -8 38 -4 87 17
60 27 67 28 270 29 137 2 219 6 238 14 34 14 37 26 9 35 -37 12 -16 55 26 55
13 0 35 5 50 10 l27 11 -32 27 c-56 47 -22 81 61 63 119 -27 184 46 203 226 7
61 6 62 -19 69 -18 4 -39 -1 -69 -20 l-44 -25 -23 24 c-29 30 -32 30 -98 -3z"/>
<path d="M2592 1835 c-47 -22 -76 -43 -83 -59 -14 -29 -10 -36 76 -139 57 -69
106 -107 138 -107 10 0 41 -12 69 -26 28 -14 61 -27 74 -28 13 -1 42 -16 65
-32 36 -25 54 -30 121 -33 58 -2 92 1 124 14 25 9 57 15 72 12 129 -27 175
-38 192 -47 29 -16 60 -60 60 -87 0 -40 18 -63 49 -63 35 0 105 50 126 89 25
48 18 183 -16 312 -16 62 -43 67 -344 66 l-258 0 -21 25 c-12 13 -36 46 -53
71 -31 45 -35 47 -81 47 -27 0 -63 -5 -80 -11 -25 -8 -37 -7 -71 10 -55 28
-75 27 -159 -14z"/>
<path d="M4317 1633 c-24 -38 -82 -113 -128 -167 -174 -205 -199 -239 -199
-274 0 -32 -38 -82 -62 -82 -5 0 -37 -26 -71 -58 -34 -32 -77 -69 -94 -81 -18
-12 -33 -30 -33 -40 0 -10 -9 -26 -20 -36 -18 -16 -22 -16 -60 -1 -22 9 -48
16 -58 16 -28 0 -112 -90 -137 -147 -32 -70 -98 -139 -208 -214 -50 -35 -115
-82 -144 -106 -52 -43 -54 -43 -121 -41 l-67 3 -3 -32 c-3 -30 -6 -33 -36 -33
-20 0 -51 -12 -81 -32 -30 -20 -67 -35 -94 -38 -41 -4 -46 -8 -46 -30 0 -24 3
-25 70 -28 81 -4 202 13 260 36 22 9 69 33 105 53 36 21 88 43 115 50 77 19
96 31 310 202 483 388 615 532 773 847 110 220 134 300 88 300 -8 0 -35 -30
-59 -67z"/>
<path d="M4671 1305 c-16 -22 -91 -230 -91 -256 0 -22 28 -6 33 19 3 16 25 53
49 83 69 87 96 160 62 173 -25 10 -31 7 -53 -19z"/>
<path d="M1310 1105 c0 -3 28 -43 63 -88 34 -45 93 -132 131 -192 170 -271
307 -415 463 -487 63 -29 86 -45 130 -90 15 -15 18 -15 44 4 l28 21 50 -22
c113 -48 156 -3 80 84 -24 26 -40 35 -81 40 -29 4 -76 16 -105 26 -29 10 -74
21 -100 25 -26 3 -54 11 -61 17 -7 5 -35 20 -61 33 -104 48 -225 212 -238 324
-5 42 -9 50 -27 50 -29 0 -36 7 -85 77 -42 60 -104 116 -181 162 -35 21 -50
26 -50 16z"/>
</g>
</svg>
