<?xml version="1.0" encoding="utf-8"?>
<!-- Generator: Adobe Illustrator 20.1.0, SVG Export Plug-In . SVG Version: 6.00 Build 0)  -->
<svg version="1.1" id="Layer_1" xmlns="http://www.w3.org/2000/svg" xmlns:xlink="http://www.w3.org/1999/xlink" x="0px" y="0px"
	 width="248.2px" height="129px" viewBox="0 0 248.2 129" style="enable-background:new 0 0 248.2 129;" xml:space="preserve">
<style type="text/css">
	.st0{fill:#FFFFFF;}
	.st1{fill:#EB414B;}
</style>
<g>
	<g>
		<path class="st0" d="M12.8,115.7c0,0.8-0.3,1.6-0.8,2.1c-0.5,0.6-1.2,0.9-2.1,1.1v0c0.7,0.1,1.2,0.4,1.6,0.9
			c0.4,0.4,0.5,1,0.5,1.6c0,0.7-0.2,1.4-0.6,1.9c-0.4,0.6-1,1-1.7,1.3c-0.7,0.3-1.6,0.5-2.7,0.5c-1.3,0-2.3-0.2-3.1-0.6v-2.2
			c0.5,0.3,0.9,0.5,1.5,0.6c0.5,0.1,1,0.2,1.5,0.2c0.9,0,1.5-0.2,2-0.5c0.5-0.3,0.7-0.8,0.7-1.4c0-0.9-0.7-1.4-2.1-1.4H6.4l0.4-1.8
			h0.6c0.9,0,1.6-0.2,2.1-0.5c0.5-0.3,0.8-0.8,0.8-1.4c0-0.4-0.1-0.6-0.4-0.8c-0.2-0.2-0.6-0.3-1-0.3c-0.7,0-1.5,0.3-2.3,0.8l-1-1.7
			c0.7-0.4,1.3-0.7,1.9-0.9c0.6-0.2,1.3-0.3,2-0.3c1,0,1.8,0.2,2.4,0.7C12.5,114.2,12.8,114.8,12.8,115.7"/>
	</g>
	<g>
		<polygon class="st0" points="20.6,125 18.1,125 20.2,115.2 17.3,115.2 17.8,113.1 26,113.1 25.5,115.2 22.7,115.2 		"/>
	</g>
	<g>
		<path class="st0" d="M26.9,125h-2.4l1.9-9.1h2.4L26.9,125z M26.7,113.8c0-0.5,0.1-0.8,0.4-1.1c0.3-0.2,0.6-0.4,1.1-0.4
			c0.4,0,0.7,0.1,0.9,0.3c0.2,0.2,0.3,0.4,0.3,0.7c0,0.4-0.1,0.8-0.4,1.1c-0.2,0.3-0.6,0.4-1.1,0.4
			C27.1,114.8,26.7,114.4,26.7,113.8"/>
	</g>
	<g>
		<path class="st0" d="M35.2,115.7c1.2,0,1.9,0.6,2.1,1.9h0c0.4-0.6,0.8-1.1,1.3-1.4c0.5-0.3,1-0.5,1.6-0.5c0.7,0,1.3,0.2,1.7,0.7
			c0.4,0.5,0.6,1.1,0.6,1.9c0,0.4-0.1,0.9-0.2,1.5l-1.1,5.2h-2.4l1.1-5.3c0.1-0.4,0.1-0.7,0.1-1c0-0.7-0.3-1-0.8-1
			c-0.5,0-0.9,0.3-1.4,0.9c-0.4,0.6-0.7,1.5-1,2.6l-0.8,3.8h-2.4l1.1-5.3c0.1-0.4,0.1-0.7,0.1-1c0-0.7-0.3-1-0.8-1
			c-0.5,0-0.9,0.3-1.4,0.9c-0.4,0.6-0.7,1.5-1,2.6l-0.8,3.8h-2.4l1.9-9.1h1.9l-0.2,1.7h0C33.2,116.4,34.1,115.7,35.2,115.7"/>
	</g>
	<g>
		<path class="st0" d="M47.1,125.1c-1.1,0-2-0.3-2.6-0.9c-0.6-0.6-0.9-1.5-0.9-2.6c0-1.1,0.2-2.1,0.7-3.1c0.4-0.9,1.1-1.6,1.8-2.1
			c0.8-0.5,1.6-0.7,2.6-0.7c1,0,1.7,0.2,2.2,0.7c0.5,0.4,0.8,1,0.8,1.8c0,1-0.5,1.8-1.4,2.3c-0.9,0.6-2.2,0.8-3.9,0.8H46l0,0.2v0.2
			c0,0.5,0.1,0.9,0.4,1.2c0.3,0.3,0.7,0.4,1.2,0.4c0.5,0,0.9-0.1,1.3-0.2c0.4-0.1,0.8-0.3,1.4-0.5v1.8
			C49.3,124.9,48.3,125.1,47.1,125.1 M48.4,117.5c-0.5,0-0.9,0.2-1.3,0.6c-0.4,0.4-0.7,1-0.8,1.6h0.4c0.8,0,1.5-0.1,2-0.4
			c0.5-0.3,0.7-0.6,0.7-1.1C49.3,117.8,49,117.5,48.4,117.5"/>
	</g>
	<g>
		<path class="st0" d="M58.1,122c0,1-0.3,1.8-1,2.3c-0.7,0.5-1.6,0.8-2.8,0.8c-0.6,0-1.1,0-1.5-0.1c-0.4-0.1-0.8-0.2-1.2-0.4v-2
			c0.9,0.5,1.7,0.7,2.6,0.7c0.4,0,0.8-0.1,1.1-0.3c0.3-0.2,0.4-0.4,0.4-0.7c0-0.2-0.1-0.4-0.3-0.6c-0.2-0.2-0.6-0.4-1.1-0.7
			c-0.7-0.4-1.1-0.7-1.4-1.1c-0.3-0.4-0.4-0.8-0.4-1.3c0-0.9,0.3-1.6,0.9-2.1c0.6-0.5,1.4-0.8,2.6-0.8c1.1,0,2.1,0.3,2.9,0.8
			l-0.8,1.7c-0.8-0.5-1.5-0.7-2.1-0.7c-0.3,0-0.6,0.1-0.7,0.2c-0.2,0.1-0.3,0.3-0.3,0.6c0,0.2,0.1,0.4,0.3,0.6
			c0.2,0.2,0.5,0.4,1,0.6c0.7,0.3,1.1,0.7,1.4,1.1C57.9,121,58.1,121.5,58.1,122"/>
	</g>
	<g>
		<path class="st0" d="M72.3,125h-2.8l-2.9-9h-0.1l0,0.3c-0.2,1.2-0.4,2.2-0.5,3.1l-1.2,5.6h-2.2l2.5-11.9h2.9l2.8,8.7h0
			c0.1-0.4,0.2-1,0.3-1.8c0.1-0.8,0.6-3.1,1.5-7h2.2L72.3,125z"/>
	</g>
	<g>
		<path class="st0" d="M77.4,125.1c-0.8,0-1.4-0.3-1.9-0.9c-0.5-0.6-0.7-1.4-0.7-2.4c0-1.1,0.2-2.1,0.6-3.1c0.4-1,0.9-1.7,1.5-2.3
			c0.6-0.5,1.3-0.8,2.1-0.8c0.5,0,1,0.1,1.4,0.3c0.4,0.2,0.7,0.6,0.9,1h0.1l0.5-1.2h1.9l-1.9,9.1h-1.9l0.1-1.2h0
			C79.3,124.7,78.4,125.1,77.4,125.1 M78.4,123.2c0.4,0,0.7-0.2,1.1-0.5c0.3-0.4,0.6-0.9,0.8-1.5c0.2-0.6,0.3-1.3,0.3-2.1
			c0-0.4-0.1-0.7-0.3-1c-0.2-0.3-0.5-0.4-0.8-0.4c-0.4,0-0.7,0.2-1,0.6c-0.3,0.4-0.6,0.9-0.8,1.5c-0.2,0.6-0.3,1.3-0.3,1.9
			c0,0.5,0.1,0.8,0.3,1.1C77.8,123.1,78,123.2,78.4,123.2"/>
	</g>
	<g>
		<path class="st0" d="M87.5,123.2c0.3,0,0.8-0.1,1.3-0.3v1.8c-0.6,0.3-1.3,0.4-2.2,0.4c-0.8,0-1.4-0.2-1.8-0.5
			c-0.4-0.3-0.6-0.9-0.6-1.6c0-0.3,0-0.6,0.1-0.9l0.9-4.4h-1.2l0.2-1.2l1.6-0.7L87,114h1.6l-0.4,1.9h2.3l-0.4,1.9h-2.3l-0.9,4.4
			c0,0.2,0,0.3,0,0.4C86.8,123,87,123.2,87.5,123.2"/>
	</g>
	<g>
		<path class="st0" d="M92.2,125h-2.4l1.9-9.1h2.4L92.2,125z M92.1,113.8c0-0.5,0.1-0.8,0.4-1.1c0.3-0.2,0.6-0.4,1.1-0.4
			c0.4,0,0.7,0.1,0.9,0.3c0.2,0.2,0.3,0.4,0.3,0.7c0,0.4-0.1,0.8-0.4,1.1c-0.2,0.3-0.6,0.4-1.1,0.4
			C92.5,114.8,92.1,114.4,92.1,113.8"/>
	</g>
	<g>
		<path class="st0" d="M102.7,119.3c0,1.1-0.2,2.2-0.6,3c-0.4,0.9-0.9,1.6-1.6,2.1c-0.7,0.5-1.6,0.7-2.6,0.7c-1.1,0-1.9-0.3-2.5-1
			c-0.6-0.6-0.9-1.5-0.9-2.5c0-1.2,0.2-2.2,0.6-3.1c0.4-0.9,0.9-1.6,1.7-2.1c0.7-0.5,1.6-0.7,2.6-0.7c1.1,0,1.9,0.3,2.5,1
			C102.4,117.3,102.7,118.2,102.7,119.3 M100.3,119.3c0-1.1-0.4-1.6-1.2-1.6c-0.4,0-0.8,0.2-1.1,0.5c-0.3,0.3-0.6,0.8-0.8,1.5
			c-0.2,0.6-0.3,1.3-0.3,2c0,1,0.4,1.5,1.2,1.5c0.4,0,0.8-0.2,1.1-0.5c0.3-0.3,0.6-0.8,0.8-1.4C100.2,120.7,100.3,120,100.3,119.3"
			/>
	</g>
	<g>
		<path class="st0" d="M110.7,125h-2.4l1.1-5.3c0.1-0.4,0.1-0.7,0.1-1c0-0.7-0.3-1-0.9-1c-0.5,0-0.9,0.3-1.4,0.9
			c-0.4,0.6-0.7,1.5-1,2.6l-0.8,3.8h-2.4l1.9-9.1h1.9l-0.2,1.7h0c0.8-1.2,1.8-1.9,2.9-1.9c0.7,0,1.3,0.2,1.7,0.7
			c0.4,0.5,0.6,1.1,0.6,1.9c0,0.4-0.1,0.9-0.2,1.5L110.7,125z"/>
	</g>
	<g>
		<path class="st0" d="M115.5,125.1c-0.8,0-1.4-0.3-1.9-0.9c-0.5-0.6-0.7-1.4-0.7-2.4c0-1.1,0.2-2.1,0.6-3.1c0.4-1,0.9-1.7,1.5-2.3
			c0.6-0.5,1.3-0.8,2.1-0.8c0.5,0,1,0.1,1.4,0.3c0.4,0.2,0.7,0.6,0.9,1h0.1l0.5-1.2h1.9l-1.9,9.1H118l0.1-1.2h0
			C117.3,124.7,116.5,125.1,115.5,125.1 M116.4,123.2c0.4,0,0.7-0.2,1.1-0.5c0.3-0.4,0.6-0.9,0.8-1.5c0.2-0.6,0.3-1.3,0.3-2.1
			c0-0.4-0.1-0.7-0.3-1c-0.2-0.3-0.5-0.4-0.8-0.4c-0.4,0-0.7,0.2-1.1,0.6c-0.3,0.4-0.6,0.9-0.8,1.5c-0.2,0.6-0.3,1.3-0.3,1.9
			c0,0.5,0.1,0.8,0.3,1.1C115.8,123.1,116.1,123.2,116.4,123.2"/>
	</g>
	<g>
		<polygon class="st0" points="124.1,125 121.7,125 124.4,112.4 126.8,112.4 		"/>
	</g>
	<g>
		<path class="st0" d="M136.1,122.2h-3.8l-1.4,2.8h-2.6l6.2-11.9h3l1.2,11.9h-2.4L136.1,122.2z M136,120l-0.2-2.8
			c-0.1-0.7-0.1-1.4-0.1-2.1v-0.3c-0.2,0.7-0.5,1.3-0.9,2.1l-1.5,3.1H136z"/>
	</g>
	<g>
		<path class="st0" d="M146,118c-0.3,1-0.7,1.8-1,2.6l-1.9,4.4h-2.6l-0.4-9.1h2.3l0,4l0,1.4l-0.1,1.4h0c0-0.1,0.1-0.2,0.1-0.3
			c0-0.1,0.2-0.5,0.4-1.1c0.2-0.6,0.4-0.9,0.4-1l1.9-4.3h2.7v4.3c0,0.8,0,1.6-0.1,2.4h0l0.2-0.7c0.4-1.1,0.7-1.8,0.8-2.1l1.8-4h2.5
			l-4.3,9.1H146l0-4.2C146,119.9,146,119,146,118L146,118z"/>
	</g>
	<g>
		<path class="st0" d="M154.8,125.1c-0.8,0-1.4-0.3-1.9-0.9c-0.5-0.6-0.7-1.4-0.7-2.4c0-1.1,0.2-2.1,0.6-3.1c0.4-1,0.9-1.7,1.5-2.3
			c0.6-0.5,1.3-0.8,2.1-0.8c0.5,0,1,0.1,1.4,0.3c0.4,0.2,0.7,0.6,0.9,1h0.1l0.5-1.2h1.9l-1.9,9.1h-1.9l0.1-1.2h0
			C156.7,124.7,155.8,125.1,154.8,125.1 M155.8,123.2c0.4,0,0.7-0.2,1.1-0.5c0.3-0.4,0.6-0.9,0.8-1.5c0.2-0.6,0.3-1.3,0.3-2.1
			c0-0.4-0.1-0.7-0.3-1c-0.2-0.3-0.5-0.4-0.8-0.4c-0.4,0-0.7,0.2-1.1,0.6c-0.3,0.4-0.6,0.9-0.8,1.5c-0.2,0.6-0.3,1.3-0.3,1.9
			c0,0.5,0.1,0.8,0.3,1.1C155.2,123.1,155.4,123.2,155.8,123.2"/>
	</g>
	<g>
		<path class="st0" d="M167.6,115.7c0.3,0,0.6,0,0.8,0.1l-0.5,2.4c-0.2-0.1-0.5-0.1-0.8-0.1c-0.6,0-1.2,0.2-1.7,0.7
			c-0.5,0.5-0.8,1.2-1,2.1l-0.9,4.1H161l1.9-9.1h1.9l-0.2,1.7h0C165.5,116.4,166.4,115.7,167.6,115.7"/>
	</g>
	<g>
		<path class="st0" d="M170.3,125.1c-0.8,0-1.4-0.3-1.9-0.9c-0.5-0.6-0.7-1.4-0.7-2.4c0-1.1,0.2-2.1,0.6-3c0.4-1,0.9-1.7,1.5-2.3
			c0.6-0.5,1.3-0.8,2.1-0.8c0.4,0,0.8,0.1,1.1,0.3c0.3,0.2,0.6,0.5,0.9,1h0.1l0-0.2c0-0.6,0.1-1.1,0.2-1.6l0.6-2.9h2.4l-2.7,12.6
			h-1.9l0.1-1.2h0c-0.4,0.5-0.8,0.8-1.2,1C171.3,125,170.9,125.1,170.3,125.1 M171.4,123.2c0.4,0,0.7-0.2,1-0.6
			c0.3-0.4,0.6-0.9,0.8-1.5c0.2-0.6,0.3-1.3,0.3-2c0-0.4-0.1-0.8-0.3-1c-0.2-0.3-0.5-0.4-0.8-0.4c-0.4,0-0.7,0.2-1.1,0.6
			c-0.3,0.4-0.6,0.9-0.8,1.5c-0.2,0.6-0.3,1.3-0.3,1.9C170.3,122.7,170.6,123.2,171.4,123.2"/>
	</g>
	<g>
		<path class="st0" d="M183.8,120.4l-1,4.6h-2.5l2.5-11.9h2.9c1.3,0,2.3,0.3,2.9,0.8c0.6,0.6,1,1.4,1,2.4c0,0.9-0.2,1.6-0.7,2.2
			c-0.4,0.6-1.1,1.1-1.9,1.4l2.1,5h-2.7l-1.7-4.6H183.8z M184.2,118.4h0.6c0.7,0,1.3-0.2,1.7-0.5c0.4-0.3,0.6-0.8,0.6-1.4
			c0-0.4-0.1-0.8-0.4-1c-0.3-0.2-0.7-0.3-1.2-0.3h-0.6L184.2,118.4z"/>
	</g>
	<g>
		<path class="st0" d="M193.7,125.1c-1.1,0-2-0.3-2.6-0.9c-0.6-0.6-0.9-1.5-0.9-2.6c0-1.1,0.2-2.1,0.7-3.1c0.4-0.9,1-1.6,1.8-2.1
			c0.8-0.5,1.6-0.7,2.6-0.7c1,0,1.7,0.2,2.2,0.7c0.5,0.4,0.8,1,0.8,1.8c0,1-0.5,1.8-1.4,2.3c-0.9,0.6-2.2,0.8-3.9,0.8h-0.4l0,0.2
			v0.2c0,0.5,0.1,0.9,0.4,1.2c0.3,0.3,0.7,0.4,1.2,0.4c0.5,0,0.9-0.1,1.3-0.2c0.4-0.1,0.9-0.3,1.4-0.5v1.8
			C195.9,124.9,194.9,125.1,193.7,125.1 M195,117.5c-0.5,0-0.9,0.2-1.3,0.6c-0.4,0.4-0.7,1-0.8,1.6h0.4c0.8,0,1.5-0.1,2-0.4
			c0.5-0.3,0.7-0.6,0.7-1.1C195.9,117.8,195.6,117.5,195,117.5"/>
	</g>
	<g>
		<path class="st0" d="M202.1,125.1c-1.1,0-1.9-0.3-2.5-0.9c-0.6-0.6-0.9-1.4-0.9-2.5c0-1.1,0.2-2.2,0.6-3.1c0.4-0.9,1-1.7,1.7-2.2
			c0.7-0.5,1.6-0.8,2.5-0.8c1,0,1.9,0.2,2.7,0.6l-0.7,1.9c-0.3-0.1-0.6-0.2-0.9-0.3c-0.3-0.1-0.6-0.1-1-0.1c-0.5,0-0.9,0.2-1.2,0.5
			c-0.4,0.3-0.7,0.8-0.9,1.4c-0.2,0.6-0.3,1.3-0.3,1.9c0,0.5,0.1,0.9,0.4,1.2c0.2,0.3,0.6,0.4,1,0.4c0.4,0,0.8-0.1,1.1-0.2
			c0.4-0.1,0.7-0.3,1.1-0.5v2C204,124.9,203.1,125.1,202.1,125.1"/>
	</g>
	<g>
		<path class="st0" d="M208.1,125h-2.4l1.9-9.1h2.4L208.1,125z M208,113.8c0-0.5,0.1-0.8,0.4-1.1c0.3-0.2,0.6-0.4,1.1-0.4
			c0.4,0,0.7,0.1,0.9,0.3c0.2,0.2,0.3,0.4,0.3,0.7c0,0.4-0.1,0.8-0.4,1.1c-0.2,0.3-0.6,0.4-1.1,0.4C208.4,114.8,208,114.4,208,113.8
			"/>
	</g>
	<g>
		<path class="st0" d="M216.2,115.7c0.8,0,1.4,0.3,1.9,0.9c0.5,0.6,0.7,1.4,0.7,2.4c0,1-0.2,2-0.6,3c-0.4,1-0.9,1.7-1.5,2.3
			c-0.6,0.6-1.4,0.8-2.1,0.8c-0.4,0-0.8-0.1-1.2-0.3c-0.3-0.2-0.6-0.5-0.9-1h-0.1c-0.1,0.9-0.2,1.7-0.3,2.4l-0.6,2.8h-2.4l2.8-13.1
			h1.9l-0.1,1.4h0.1C214.4,116.3,215.2,115.7,216.2,115.7 M215.2,117.7c-0.4,0-0.7,0.2-1.1,0.5c-0.3,0.4-0.6,0.9-0.8,1.5
			c-0.2,0.6-0.3,1.3-0.3,2c0,0.4,0.1,0.8,0.3,1c0.2,0.3,0.5,0.4,0.8,0.4c0.4,0,0.7-0.2,1-0.6c0.3-0.4,0.6-0.9,0.8-1.5
			c0.2-0.7,0.3-1.3,0.3-1.9C216.3,118.2,215.9,117.7,215.2,117.7"/>
	</g>
	<g>
		<path class="st0" d="M221.6,125h-2.4l1.9-9.1h2.4L221.6,125z M221.5,113.8c0-0.5,0.1-0.8,0.4-1.1c0.3-0.2,0.6-0.4,1.1-0.4
			c0.4,0,0.7,0.1,0.9,0.3c0.2,0.2,0.3,0.4,0.3,0.7c0,0.4-0.1,0.8-0.4,1.1c-0.2,0.3-0.6,0.4-1.1,0.4
			C221.9,114.8,221.5,114.4,221.5,113.8"/>
	</g>
	<g>
		<path class="st0" d="M227.4,125.1c-1.1,0-2-0.3-2.6-0.9c-0.6-0.6-0.9-1.5-0.9-2.6c0-1.1,0.2-2.1,0.7-3.1c0.4-0.9,1-1.6,1.8-2.1
			c0.8-0.5,1.6-0.7,2.6-0.7c1,0,1.7,0.2,2.2,0.7c0.5,0.4,0.8,1,0.8,1.8c0,1-0.4,1.8-1.4,2.3c-0.9,0.6-2.2,0.8-3.9,0.8h-0.4l0,0.2
			v0.2c0,0.5,0.1,0.9,0.4,1.2c0.3,0.3,0.7,0.4,1.2,0.4c0.5,0,0.9-0.1,1.3-0.2c0.4-0.1,0.8-0.3,1.4-0.5v1.8
			C229.7,124.9,228.6,125.1,227.4,125.1 M228.8,117.5c-0.5,0-0.9,0.2-1.3,0.6c-0.4,0.4-0.7,1-0.8,1.6h0.4c0.8,0,1.5-0.1,2-0.4
			c0.5-0.3,0.7-0.6,0.7-1.1C229.6,117.8,229.3,117.5,228.8,117.5"/>
	</g>
	<g>
		<path class="st0" d="M239.6,125h-2.4l1.1-5.3c0.1-0.4,0.1-0.7,0.1-1c0-0.7-0.3-1-0.9-1c-0.5,0-0.9,0.3-1.3,0.9
			c-0.4,0.6-0.7,1.5-1,2.6l-0.8,3.8H232l1.9-9.1h1.9l-0.2,1.7h0.1c0.8-1.2,1.7-1.9,2.9-1.9c0.7,0,1.3,0.2,1.7,0.7
			c0.4,0.5,0.6,1.1,0.6,1.9c0,0.4-0.1,0.9-0.2,1.5L239.6,125z"/>
	</g>
	<g>
		<path class="st0" d="M245.3,123.2c0.4,0,0.8-0.1,1.3-0.3v1.8c-0.6,0.3-1.3,0.4-2.2,0.4c-0.8,0-1.4-0.2-1.8-0.5
			c-0.4-0.3-0.6-0.9-0.6-1.6c0-0.3,0-0.6,0.1-0.9l0.9-4.4h-1.2l0.2-1.2l1.6-0.7l1.1-1.9h1.6l-0.4,1.9h2.3l-0.4,1.9h-2.3l-0.9,4.4
			c0,0.2,0,0.3,0,0.4C244.5,123,244.8,123.2,245.3,123.2"/>
	</g>
	<g>
		<polygon class="st0" points="72.5,98 75.5,93.2 78.3,93.2 73.3,100.5 72.3,105 69.8,105 70.8,100.5 68.9,93.2 71.4,93.2 		"/>
	</g>
	<g>
		<path class="st0" d="M80.4,105.2c-1.1,0-2-0.3-2.6-0.9c-0.6-0.6-0.9-1.5-0.9-2.6c0-1.1,0.2-2.1,0.7-3.1c0.4-0.9,1-1.6,1.8-2.1
			c0.8-0.5,1.6-0.7,2.6-0.7c1,0,1.7,0.2,2.2,0.7c0.5,0.4,0.8,1,0.8,1.8c0,1-0.5,1.8-1.4,2.3c-0.9,0.6-2.2,0.8-3.9,0.8h-0.4l0,0.2
			v0.2c0,0.5,0.1,0.9,0.4,1.2c0.3,0.3,0.7,0.4,1.2,0.4c0.5,0,0.9-0.1,1.3-0.2c0.4-0.1,0.9-0.3,1.4-0.5v1.8
			C82.6,105,81.6,105.2,80.4,105.2 M81.7,97.6c-0.5,0-0.9,0.2-1.3,0.6c-0.4,0.4-0.7,1-0.8,1.6h0.4c0.8,0,1.5-0.1,2-0.4
			c0.5-0.3,0.7-0.6,0.7-1.1C82.6,97.8,82.3,97.6,81.7,97.6"/>
	</g>
	<g>
		<path class="st0" d="M88,105.2c-0.8,0-1.4-0.3-1.9-0.9c-0.5-0.6-0.7-1.4-0.7-2.4c0-1.1,0.2-2.1,0.6-3.1c0.4-1,0.9-1.7,1.5-2.3
			c0.6-0.5,1.3-0.8,2.1-0.8c0.5,0,1,0.1,1.4,0.3c0.4,0.2,0.7,0.6,0.9,1h0.1l0.5-1.2h1.9l-1.9,9.1h-1.9l0.1-1.2h0
			C89.8,104.7,89,105.2,88,105.2 M88.9,103.2c0.4,0,0.7-0.2,1.1-0.5c0.3-0.4,0.6-0.9,0.8-1.5c0.2-0.6,0.3-1.3,0.3-2.1
			c0-0.4-0.1-0.7-0.3-1c-0.2-0.3-0.5-0.4-0.8-0.4c-0.4,0-0.7,0.2-1,0.6c-0.3,0.4-0.6,0.9-0.8,1.5c-0.2,0.6-0.3,1.3-0.3,1.9
			c0,0.5,0.1,0.8,0.3,1.1C88.3,103.1,88.6,103.2,88.9,103.2"/>
	</g>
	<g>
		<path class="st0" d="M100.7,95.8c0.3,0,0.6,0,0.8,0.1l-0.5,2.4c-0.2-0.1-0.5-0.1-0.8-0.1c-0.6,0-1.2,0.2-1.6,0.7
			c-0.5,0.5-0.8,1.2-1,2.1l-0.9,4.1h-2.4l1.9-9.1H98l-0.2,1.7h0C98.6,96.4,99.6,95.8,100.7,95.8"/>
	</g>
	<g>
		<path class="st0" d="M106.9,102c0,1-0.3,1.8-1,2.3c-0.7,0.5-1.6,0.8-2.8,0.8c-0.6,0-1.1,0-1.5-0.1c-0.4-0.1-0.8-0.2-1.2-0.4v-2
			c0.8,0.5,1.7,0.7,2.6,0.7c0.4,0,0.8-0.1,1.1-0.3c0.3-0.2,0.4-0.4,0.4-0.7c0-0.2-0.1-0.4-0.3-0.6c-0.2-0.2-0.6-0.4-1.1-0.7
			c-0.7-0.4-1.1-0.7-1.4-1.1c-0.3-0.4-0.4-0.8-0.4-1.3c0-0.9,0.3-1.6,0.9-2.1c0.6-0.5,1.4-0.8,2.6-0.8c1.1,0,2.1,0.3,2.9,0.8
			l-0.8,1.7c-0.8-0.5-1.5-0.7-2.1-0.7c-0.3,0-0.6,0.1-0.7,0.2c-0.2,0.1-0.3,0.3-0.3,0.6c0,0.2,0.1,0.4,0.3,0.6
			c0.2,0.2,0.5,0.4,1,0.6c0.7,0.3,1.1,0.7,1.4,1.1C106.8,101.1,106.9,101.5,106.9,102"/>
	</g>
	<g>
		<path class="st0" d="M120.1,99.4c0,1.1-0.2,2.2-0.6,3c-0.4,0.9-0.9,1.6-1.6,2c-0.7,0.5-1.6,0.7-2.6,0.7c-1.1,0-1.9-0.3-2.5-1
			c-0.6-0.6-0.9-1.5-0.9-2.5c0-1.2,0.2-2.2,0.6-3.1c0.4-0.9,0.9-1.6,1.7-2.1c0.7-0.5,1.6-0.7,2.6-0.7c1.1,0,1.9,0.3,2.5,1
			C119.8,97.4,120.1,98.3,120.1,99.4 M117.6,99.4c0-1.1-0.4-1.6-1.2-1.6c-0.4,0-0.8,0.2-1.1,0.5c-0.3,0.3-0.6,0.8-0.8,1.5
			c-0.2,0.6-0.3,1.3-0.3,2c0,1,0.4,1.5,1.2,1.5c0.4,0,0.8-0.2,1.1-0.5c0.3-0.3,0.6-0.8,0.8-1.4C117.5,100.7,117.6,100.1,117.6,99.4"
			/>
	</g>
	<g>
		<path class="st0" d="M119.8,109c-0.6,0-1-0.1-1.4-0.2v-2c0.3,0.1,0.6,0.2,0.9,0.2c0.3,0,0.6-0.1,0.9-0.3c0.3-0.2,0.4-0.6,0.5-1.1
			l1.7-7.8H121l0.3-1.2l1.5-0.7l0.1-0.7c0.2-1,0.6-1.8,1.1-2.3c0.5-0.5,1.3-0.7,2.2-0.7c0.7,0,1.3,0.1,1.9,0.4l-0.6,1.8
			c-0.4-0.2-0.7-0.2-1.1-0.2c-0.3,0-0.6,0.1-0.7,0.3c-0.2,0.2-0.3,0.5-0.4,0.8l-0.1,0.5h1.8l-0.4,1.9h-1.8L123,106
			C122.6,108,121.5,109,119.8,109"/>
	</g>
	<g>
		<polygon class="st0" points="136.4,105 129.7,105 132.3,93.2 138.9,93.2 138.5,95.2 134.3,95.2 133.8,97.8 137.6,97.8 137.2,99.9 
			133.3,99.9 132.7,103 136.8,103 		"/>
	</g>
	<g>
		<polygon class="st0" points="140.7,100.4 138.9,96 141.5,96 142.4,98.7 144.4,96 147.3,96 143.5,100.5 145.5,105 142.8,105 
			141.8,102.3 139.7,105 136.9,105 		"/>
	</g>
	<g>
		<path class="st0" d="M149.9,105.2c-1.1,0-1.9-0.3-2.5-0.9c-0.6-0.6-0.9-1.4-0.9-2.5c0-1.1,0.2-2.2,0.6-3.1c0.4-0.9,1-1.7,1.7-2.2
			c0.7-0.5,1.6-0.8,2.5-0.8c1,0,1.9,0.2,2.7,0.6l-0.8,1.9c-0.3-0.1-0.6-0.2-0.9-0.3c-0.3-0.1-0.6-0.1-1-0.1c-0.5,0-0.9,0.2-1.2,0.5
			c-0.4,0.3-0.7,0.8-0.9,1.4c-0.2,0.6-0.3,1.3-0.3,1.9c0,0.5,0.1,0.9,0.4,1.2c0.2,0.3,0.6,0.4,1,0.4c0.4,0,0.8-0.1,1.1-0.2
			c0.3-0.1,0.7-0.3,1.1-0.5v2C151.8,105,150.9,105.2,149.9,105.2"/>
	</g>
	<g>
		<path class="st0" d="M157.5,105.2c-1.1,0-2-0.3-2.6-0.9c-0.6-0.6-0.9-1.5-0.9-2.6c0-1.1,0.2-2.1,0.7-3.1c0.4-0.9,1.1-1.6,1.8-2.1
			c0.8-0.5,1.6-0.7,2.6-0.7c1,0,1.7,0.2,2.2,0.7c0.5,0.4,0.8,1,0.8,1.8c0,1-0.5,1.8-1.4,2.3c-0.9,0.6-2.2,0.8-3.9,0.8h-0.4l0,0.2
			v0.2c0,0.5,0.1,0.9,0.4,1.2c0.3,0.3,0.7,0.4,1.2,0.4c0.5,0,0.9-0.1,1.3-0.2c0.4-0.1,0.9-0.3,1.4-0.5v1.8
			C159.7,105,158.7,105.2,157.5,105.2 M158.8,97.6c-0.5,0-0.9,0.2-1.3,0.6c-0.4,0.4-0.7,1-0.8,1.6h0.4c0.8,0,1.5-0.1,2-0.4
			c0.5-0.3,0.7-0.6,0.7-1.1C159.7,97.8,159.4,97.6,158.8,97.6"/>
	</g>
	<g>
		<polygon class="st0" points="164.5,105 162.1,105 164.8,92.4 167.2,92.4 		"/>
	</g>
	<g>
		<polygon class="st0" points="168.8,105 166.3,105 169,92.4 171.5,92.4 		"/>
	</g>
	<g>
		<path class="st0" d="M174.6,105.2c-1.1,0-2-0.3-2.6-0.9c-0.6-0.6-0.9-1.5-0.9-2.6c0-1.1,0.2-2.1,0.7-3.1c0.4-0.9,1.1-1.6,1.8-2.1
			c0.8-0.5,1.6-0.7,2.6-0.7s1.7,0.2,2.2,0.7c0.5,0.4,0.8,1,0.8,1.8c0,1-0.4,1.8-1.4,2.3c-0.9,0.6-2.2,0.8-3.9,0.8h-0.4l0,0.2v0.2
			c0,0.5,0.1,0.9,0.4,1.2c0.3,0.3,0.7,0.4,1.2,0.4c0.5,0,0.9-0.1,1.3-0.2c0.4-0.1,0.8-0.3,1.4-0.5v1.8
			C176.9,105,175.8,105.2,174.6,105.2 M176,97.6c-0.5,0-0.9,0.2-1.3,0.6c-0.4,0.4-0.7,1-0.8,1.6h0.4c0.8,0,1.5-0.1,2-0.4
			c0.5-0.3,0.7-0.6,0.7-1.1C176.8,97.8,176.5,97.6,176,97.6"/>
	</g>
	<g>
		<path class="st0" d="M186.8,105h-2.4l1.1-5.3c0.1-0.4,0.1-0.7,0.1-1c0-0.7-0.3-1-0.9-1c-0.5,0-1,0.3-1.4,0.9
			c-0.4,0.6-0.7,1.5-1,2.6l-0.8,3.8h-2.4l1.9-9.1h1.9l-0.2,1.7h0.1c0.8-1.2,1.8-1.8,2.9-1.8c0.7,0,1.3,0.2,1.7,0.7
			c0.4,0.4,0.6,1.1,0.6,1.9c0,0.4-0.1,0.9-0.2,1.5L186.8,105z"/>
	</g>
	<g>
		<path class="st0" d="M192.4,105.2c-1.1,0-1.9-0.3-2.5-0.9c-0.6-0.6-0.9-1.4-0.9-2.5c0-1.1,0.2-2.2,0.6-3.1c0.4-0.9,1-1.7,1.7-2.2
			c0.7-0.5,1.6-0.8,2.5-0.8c1,0,1.9,0.2,2.7,0.6l-0.8,1.9c-0.3-0.1-0.6-0.2-0.9-0.3c-0.3-0.1-0.6-0.1-1-0.1c-0.5,0-0.9,0.2-1.2,0.5
			c-0.4,0.3-0.7,0.8-0.9,1.4c-0.2,0.6-0.3,1.3-0.3,1.9c0,0.5,0.1,0.9,0.4,1.2c0.2,0.3,0.6,0.4,1,0.4c0.4,0,0.8-0.1,1.1-0.2
			c0.3-0.1,0.7-0.3,1.1-0.5v2C194.3,105,193.4,105.2,192.4,105.2"/>
	</g>
	<g>
		<path class="st0" d="M200,105.2c-1.1,0-2-0.3-2.6-0.9c-0.6-0.6-0.9-1.5-0.9-2.6c0-1.1,0.2-2.1,0.7-3.1c0.4-0.9,1-1.6,1.8-2.1
			c0.8-0.5,1.6-0.7,2.6-0.7c1,0,1.7,0.2,2.2,0.7c0.5,0.4,0.8,1,0.8,1.8c0,1-0.5,1.8-1.4,2.3c-0.9,0.6-2.2,0.8-3.9,0.8h-0.4l0,0.2
			v0.2c0,0.5,0.1,0.9,0.4,1.2c0.3,0.3,0.7,0.4,1.2,0.4c0.5,0,0.9-0.1,1.3-0.2c0.4-0.1,0.9-0.3,1.4-0.5v1.8
			C202.2,105,201.1,105.2,200,105.2 M201.3,97.6c-0.5,0-0.9,0.2-1.4,0.6c-0.4,0.4-0.7,1-0.8,1.6h0.4c0.8,0,1.5-0.1,2-0.4
			c0.5-0.3,0.7-0.6,0.7-1.1C202.2,97.8,201.9,97.6,201.3,97.6"/>
	</g>
	<g>
		<path class="st0" d="M53.5,95.7c0,0.8-0.3,1.6-0.8,2.1c-0.5,0.6-1.2,0.9-2.1,1.1v0c0.7,0.1,1.2,0.4,1.6,0.9c0.4,0.4,0.5,1,0.5,1.6
			c0,0.7-0.2,1.4-0.6,1.9c-0.4,0.6-1,1-1.7,1.3c-0.7,0.3-1.6,0.5-2.7,0.5c-1.3,0-2.3-0.2-3.1-0.6v-2.2c0.5,0.3,0.9,0.5,1.5,0.6
			c0.5,0.1,1.1,0.2,1.6,0.2c0.9,0,1.5-0.2,2-0.5c0.5-0.3,0.7-0.8,0.7-1.4c0-0.9-0.7-1.4-2.1-1.4h-1.1l0.4-1.8h0.6
			c0.9,0,1.6-0.2,2.1-0.5c0.5-0.3,0.8-0.8,0.8-1.4c0-0.4-0.1-0.6-0.4-0.8c-0.2-0.2-0.6-0.3-1-0.3c-0.7,0-1.5,0.3-2.3,0.8l-1-1.7
			c0.7-0.4,1.3-0.7,1.9-0.9c0.6-0.2,1.3-0.3,2-0.3c1,0,1.8,0.2,2.4,0.7C53.2,94.2,53.5,94.9,53.5,95.7"/>
	</g>
	<g>
		<path class="st1" d="M41.6,0.1c0,0-0.1-0.1-0.2-0.1c-0.1,0-0.2,0.1-0.2,0.1c-14.1,20.6-1.5,29.5,0,30.5c0,0,0.1,0.1,0.1,0.1
			c0.1,0,0.1,0,0.1,0C43,29.7,55.8,20.8,41.6,0.1 M41.4,24.5c-3.3,0-6-2.7-6-6c0-3.3,2.7-6,6-6c1,0,2,0.3,2.9,0.7c0,0,0.1,0,0.1,0.2
			c0,0.1,0,0.1,0,0.1l-2.2,3.6c0,0,0,0.1-0.1,0.1c-0.1,0-0.2,0-0.2,0c-0.2-0.1-0.3-0.1-0.5-0.1c-0.7,0-1.3,0.6-1.3,1.3
			c0,0.7,0.6,1.3,1.3,1.3c0.7,0,1.3-0.6,1.3-1.3c0-0.1,0-0.3-0.1-0.4c0,0,0-0.1,0-0.1c0-0.1,0.1-0.1,0.1-0.1l3.9-1.7
			c0,0,0.1,0,0.2,0c0.1,0,0.1,0.1,0.1,0.1c0.3,0.7,0.4,1.4,0.4,2.2C47.4,21.8,44.7,24.5,41.4,24.5"/>
	</g>
	<g>
		<path class="st1" d="M41.2,82.7c0,0,0.1,0.1,0.2,0.1c0.1,0,0.2-0.1,0.2-0.1c14.1-20.6,1.5-29.5,0-30.5c0,0-0.1-0.1-0.1-0.1
			c-0.1,0-0.1,0-0.1,0C39.8,53.1,27,62.1,41.2,82.7 M41.4,58.4c3.3,0,6,2.7,6,6c0,3.3-2.7,6-6,6c-1,0-2-0.3-2.9-0.7
			c0,0-0.1,0-0.1-0.2c0-0.1,0-0.2,0-0.2l2.2-3.6c0,0,0-0.1,0.1-0.1c0.1,0,0.2,0,0.2,0c0.2,0.1,0.3,0.1,0.5,0.1
			c0.7,0,1.3-0.6,1.3-1.3c0-0.7-0.6-1.3-1.3-1.3c-0.7,0-1.3,0.6-1.3,1.3c0,0.1,0,0.3,0.1,0.4c0,0,0,0.1,0,0.1c0,0.1-0.1,0.1-0.1,0.1
			l-3.9,1.7c0,0-0.1,0-0.2,0c-0.1,0-0.1-0.1-0.1-0.1c-0.3-0.7-0.4-1.4-0.4-2.2C35.4,61,38.1,58.4,41.4,58.4"/>
	</g>
	<g>
		<path class="st1" d="M0.1,41.3c0,0-0.1,0.1-0.1,0.2c0,0.1,0.1,0.2,0.1,0.2c20.6,14.1,29.5,1.5,30.5,0c0,0,0-0.1,0-0.1
			c0-0.1,0-0.1,0-0.1C29.7,39.9,20.8,27.1,0.1,41.3 M24.5,41.4c0,3.3-2.7,6-6,6c-3.3,0-6-2.7-6-6c0-1,0.3-2,0.7-2.9
			c0,0,0-0.1,0.2-0.1c0.1,0,0.2,0,0.2,0l3.6,2.2c0,0,0.1,0,0.1,0.1c0,0.1,0,0.2,0,0.2c-0.1,0.2-0.1,0.3-0.1,0.5
			c0,0.7,0.6,1.3,1.3,1.3c0.7,0,1.3-0.6,1.3-1.3c0-0.7-0.6-1.3-1.3-1.3c-0.1,0-0.2,0-0.4,0.1c0,0-0.1,0-0.1,0
			c-0.1,0-0.1-0.1-0.1-0.1l-1.7-3.9c0,0-0.1-0.1,0-0.2c0-0.1,0.1-0.1,0.1-0.1c0.7-0.3,1.4-0.4,2.2-0.4
			C21.8,35.5,24.5,38.1,24.5,41.4"/>
	</g>
	<g>
		<path class="st1" d="M82.7,41.6c0,0,0.1-0.1,0.1-0.2c0-0.1-0.1-0.2-0.1-0.2c-20.6-14.1-29.5-1.5-30.5,0c0,0-0.1,0.1-0.1,0.1
			c0,0.1,0,0.1,0,0.1C53.1,43,62.1,55.8,82.7,41.6 M58.4,41.4c0-3.3,2.7-6,6-6c3.3,0,6,2.7,6,6c0,1-0.3,2-0.7,2.9c0,0,0,0.1-0.2,0.1
			c-0.1,0-0.2,0-0.2,0l-3.6-2.2c0,0-0.1,0-0.1-0.1c0-0.1,0-0.2,0-0.2c0.1-0.2,0.1-0.3,0.1-0.5c0-0.7-0.6-1.3-1.3-1.3
			c-0.7,0-1.3,0.6-1.3,1.3c0,0.7,0.6,1.3,1.3,1.3c0.1,0,0.2,0,0.4-0.1c0,0,0.1,0,0.1,0c0.1,0,0.1,0.1,0.1,0.1l1.7,3.9
			c0,0,0.1,0.1,0,0.2c0,0.1-0.1,0.1-0.1,0.1c-0.7,0.3-1.4,0.4-2.2,0.4C61,47.4,58.4,44.7,58.4,41.4"/>
	</g>
	<g>
		<path class="st1" d="M70.7,12.3c0,0,0-0.1-0.1-0.2c-0.1-0.1-0.2-0.1-0.2-0.1c-24.6,4.6-21.9,19.9-21.5,21.6c0,0,0,0.1,0.1,0.1
			c0.1,0.1,0.1,0.1,0.1,0.1C50.8,34.2,66.2,37,70.7,12.3 M53.4,29.4c-2.3-2.3-2.3-6.1,0-8.5c2.3-2.3,6.1-2.3,8.4,0
			c0.7,0.7,1.2,1.6,1.5,2.5c0,0,0,0.1,0,0.2c0,0.1-0.1,0.1-0.1,0.1l-4.1,1c0,0-0.1,0-0.1,0c-0.1,0-0.1-0.1-0.1-0.1
			c-0.1-0.2-0.2-0.3-0.3-0.4c-0.5-0.5-1.4-0.5-1.9,0c-0.5,0.5-0.5,1.4,0,1.9c0.5,0.5,1.4,0.5,1.9,0c0.1-0.1,0.2-0.2,0.2-0.3
			c0,0,0-0.1,0.1-0.1c0.1,0,0.2,0,0.2,0l4,1.5c0,0,0.1,0,0.1,0.1c0,0.1,0,0.2,0,0.2c-0.3,0.7-0.7,1.3-1.3,1.9
			C59.5,31.8,55.7,31.8,53.4,29.4"/>
	</g>
	<g>
		<path class="st1" d="M12.1,70.5c0,0,0,0.1,0.1,0.2c0.1,0.1,0.2,0.1,0.2,0.1c24.6-4.6,21.9-19.9,21.5-21.6c0,0,0-0.1-0.1-0.1
			c-0.1-0.1-0.1-0.1-0.1-0.1C32,48.6,16.6,45.8,12.1,70.5 M29.4,53.4c2.3,2.3,2.3,6.1,0,8.5c-2.3,2.3-6.1,2.3-8.5,0
			c-0.7-0.7-1.2-1.6-1.5-2.5c0,0,0-0.1,0-0.2c0-0.1,0.1-0.1,0.1-0.1l4.1-1c0,0,0.1,0,0.1,0c0.1,0,0.1,0.1,0.1,0.1
			c0.1,0.2,0.2,0.3,0.3,0.4c0.5,0.5,1.4,0.5,1.9,0c0.5-0.5,0.5-1.4,0-1.9c-0.5-0.5-1.4-0.5-1.9,0c-0.1,0.1-0.2,0.2-0.2,0.3
			c0,0,0,0.1-0.1,0.1c-0.1,0-0.2,0-0.2,0l-4-1.5c0,0-0.1,0-0.1-0.1c0-0.1,0-0.2,0-0.2c0.3-0.7,0.7-1.3,1.3-1.9
			C23.3,51,27.1,51,29.4,53.4"/>
	</g>
	<g>
		<path class="st1" d="M12.3,12.1c0,0-0.1,0-0.2,0.1C12,12.2,12,12.4,12,12.4c4.6,24.6,19.8,21.9,21.6,21.5c0,0,0.1,0,0.1-0.1
			c0.1-0.1,0.1-0.1,0.1-0.1C34.2,32,36.9,16.7,12.3,12.1 M29.4,29.5c-2.3,2.3-6.1,2.3-8.4,0c-2.3-2.3-2.3-6.1,0-8.5
			c0.7-0.7,1.6-1.2,2.5-1.5c0,0,0.1,0,0.2,0c0.1,0,0.1,0.1,0.1,0.1l1,4.1c0,0,0,0.1,0,0.1c0,0.1-0.1,0.1-0.1,0.1
			c-0.2,0.1-0.3,0.2-0.4,0.3c-0.5,0.5-0.5,1.4,0,1.9c0.5,0.5,1.4,0.5,1.9,0c0.5-0.5,0.5-1.4,0-1.9c-0.1-0.1-0.2-0.2-0.3-0.2
			c0,0-0.1,0-0.1-0.1c0-0.1,0-0.2,0-0.2l1.5-4c0,0,0-0.1,0.1-0.1c0.1,0,0.2,0,0.2,0c0.7,0.3,1.3,0.7,1.9,1.3
			C31.7,23.3,31.7,27.1,29.4,29.5"/>
	</g>
	<g>
		<path class="st1" d="M70.5,70.8c0,0,0.1,0,0.2-0.1c0.1-0.1,0.1-0.2,0.1-0.2C66.2,45.9,50.9,48.6,49.1,49c0,0-0.1,0-0.1,0.1
			c-0.1,0.1-0.1,0.1-0.1,0.1C48.6,50.9,45.8,66.2,70.5,70.8 M53.4,53.4c2.3-2.3,6.1-2.3,8.5,0c2.3,2.3,2.3,6.1,0,8.4
			c-0.7,0.7-1.6,1.2-2.5,1.5c0,0-0.1,0-0.2,0C59,63.3,59,63.2,59,63.2l-1-4.1c0,0,0-0.1,0-0.1c0-0.1,0.1-0.1,0.1-0.1
			c0.2-0.1,0.3-0.2,0.4-0.3c0.5-0.5,0.5-1.4,0-1.9c-0.5-0.5-1.4-0.5-1.9,0c-0.5,0.5-0.5,1.4,0,1.9c0.1,0.1,0.2,0.2,0.3,0.2
			c0,0,0.1,0,0.1,0.1c0,0.1,0,0.2,0,0.2l-1.5,4c0,0,0,0.1-0.1,0.1c-0.1,0-0.2,0-0.2,0c-0.7-0.3-1.3-0.7-1.9-1.3
			C51,59.5,51,55.8,53.4,53.4"/>
	</g>
	<g>
		<rect x="98.3" y="12.5" class="st0" width="3.7" height="16.6"/>
	</g>
	<g>
		<path class="st0" d="M105.3,16.4h3.6v1.8c0.8-1.1,1.9-2,3.7-2c2.7,0,4.3,1.8,4.3,4.7v8.2h-3.6V22c0-1.7-0.8-2.6-2.2-2.6
			c-1.4,0-2.3,0.9-2.3,2.6v7.1h-3.6V16.4z"/>
	</g>
	<g>
		<path class="st0" d="M119,22.8L119,22.8c0-4.3,2.8-6.6,5.8-6.6c1.9,0,3.1,0.9,4,1.9v-6.3h3.6v17.3h-3.6v-1.8
			c-0.9,1.2-2.1,2.1-4,2.1C121.8,29.3,119,27,119,22.8 M128.8,22.8L128.8,22.8c0-2.2-1.4-3.6-3.1-3.6c-1.7,0-3.1,1.4-3.1,3.5v0
			c0,2.1,1.4,3.5,3.1,3.5C127.4,26.3,128.8,24.9,128.8,22.8"/>
	</g>
	<g>
		<path class="st0" d="M135.2,11.8h3.8V15h-3.8V11.8z M135.3,16.4h3.6v12.7h-3.6V16.4z"/>
	</g>
	<g>
		<path class="st0" d="M141.1,25.4L141.1,25.4c0-2.8,2.1-4.1,5.1-4.1c1.3,0,2.2,0.2,3.1,0.5v-0.2c0-1.5-0.9-2.3-2.7-2.3
			c-1.4,0-2.3,0.3-3.5,0.7l-0.9-2.8c1.4-0.6,2.8-1,4.9-1c2,0,3.4,0.5,4.3,1.4c0.9,0.9,1.4,2.4,1.4,4.1v7.4h-3.5v-1.4
			c-0.9,1-2.1,1.6-3.8,1.6C143,29.3,141.1,28,141.1,25.4 M149.3,24.6V24c-0.6-0.3-1.4-0.5-2.3-0.5c-1.5,0-2.5,0.6-2.5,1.8v0
			c0,1,0.8,1.5,2,1.5C148.2,26.8,149.3,25.9,149.3,24.6"/>
	</g>
	<g>
		<path class="st0" d="M155.4,16.4h3.6v1.8c0.8-1.1,1.9-2,3.7-2c2.7,0,4.3,1.8,4.3,4.7v8.2h-3.6V22c0-1.7-0.8-2.6-2.2-2.6
			c-1.4,0-2.3,0.9-2.3,2.6v7.1h-3.6V16.4z"/>
	</g>
	<g>
		<path class="st0" d="M103.9,34.1h3.4l7.1,16.7h-3.8l-1.5-3.7h-7l-1.5,3.7h-3.7L103.9,34.1z M107.7,43.9l-2.2-5.4l-2.2,5.4H107.7z"
			/>
	</g>
	<g>
		<path class="st0" d="M115.1,49.2l1.5-2.4c1.4,1,2.8,1.5,4,1.5c1,0,1.5-0.4,1.5-0.9v0c0-0.8-1.2-1-2.6-1.5
			c-1.8-0.5-3.8-1.4-3.8-3.8v0c0-2.6,2.1-4,4.7-4c1.6,0,3.4,0.5,4.7,1.5l-1.4,2.5c-1.3-0.7-2.5-1.2-3.4-1.2c-0.9,0-1.3,0.4-1.3,0.9
			v0c0,0.7,1.2,1,2.6,1.5c1.8,0.6,3.8,1.4,3.8,3.8v0c0,2.8-2.1,4.1-4.9,4.1C118.7,51.1,116.7,50.5,115.1,49.2"/>
	</g>
	<g>
		<path class="st0" d="M126.3,49.2l1.5-2.4c1.4,1,2.8,1.5,4,1.5c1,0,1.5-0.4,1.5-0.9v0c0-0.8-1.2-1-2.6-1.5
			c-1.8-0.5-3.8-1.4-3.8-3.8v0c0-2.6,2.1-4,4.7-4c1.6,0,3.4,0.5,4.7,1.5l-1.4,2.5c-1.3-0.7-2.5-1.2-3.4-1.2c-0.9,0-1.3,0.4-1.3,0.9
			v0c0,0.7,1.2,1,2.6,1.5c1.8,0.6,3.8,1.4,3.8,3.8v0c0,2.8-2.1,4.1-4.9,4.1C129.9,51.1,127.9,50.5,126.3,49.2"/>
	</g>
	<g>
		<path class="st0" d="M138.1,44.5L138.1,44.5c0-3.7,2.9-6.7,6.9-6.7c3.9,0,6.9,2.9,6.9,6.6v0c0,3.7-2.9,6.6-6.9,6.6
			C141,51.1,138.1,48.2,138.1,44.5 M148.3,44.5L148.3,44.5c0-1.9-1.4-3.6-3.3-3.6c-2.1,0-3.3,1.6-3.3,3.5v0c0,1.9,1.4,3.5,3.3,3.5
			C147,48,148.3,46.4,148.3,44.5"/>
	</g>
	<g>
		<path class="st0" d="M153.3,44.5L153.3,44.5c0-3.7,2.8-6.7,6.7-6.7c2.4,0,3.9,0.8,5.1,2.1l-2.2,2.4c-0.8-0.9-1.6-1.4-2.9-1.4
			c-1.8,0-3.1,1.6-3.1,3.5v0c0,1.9,1.3,3.5,3.2,3.5c1.2,0,2-0.5,2.9-1.4l2.1,2.1c-1.2,1.4-2.7,2.3-5.2,2.3
			C156.1,51.1,153.3,48.2,153.3,44.5"/>
	</g>
	<g>
		<path class="st0" d="M167.6,33.5h3.8v3.2h-3.8V33.5z M167.7,38.1h3.6v12.7h-3.6V38.1z"/>
	</g>
	<g>
		<path class="st0" d="M173.4,47.2L173.4,47.2c0-2.8,2.1-4.1,5.1-4.1c1.3,0,2.2,0.2,3.1,0.5v-0.2c0-1.5-0.9-2.3-2.7-2.3
			c-1.4,0-2.3,0.3-3.5,0.7l-0.9-2.8c1.4-0.6,2.8-1,4.9-1c2,0,3.4,0.5,4.3,1.4c1,0.9,1.4,2.3,1.4,4.1v7.4h-3.5v-1.4
			c-0.9,1-2.1,1.6-3.8,1.6C175.4,51.1,173.4,49.7,173.4,47.2 M181.7,46.4v-0.6c-0.6-0.3-1.4-0.5-2.3-0.5c-1.5,0-2.5,0.6-2.5,1.8V47
			c0,1,0.8,1.5,2,1.5C180.6,48.6,181.7,47.7,181.7,46.4"/>
	</g>
	<g>
		<path class="st0" d="M188.2,47.2v-6h-1.5v-3.1h1.5v-3.3h3.6v3.3h3v3.1h-3v5.4c0,0.8,0.4,1.2,1.2,1.2c0.7,0,1.3-0.2,1.8-0.5v2.9
			c-0.8,0.5-1.6,0.7-2.8,0.7C189.7,51,188.2,50.2,188.2,47.2"/>
	</g>
	<g>
		<path class="st0" d="M197.1,33.5h3.8v3.2h-3.8V33.5z M197.2,38.1h3.6v12.7h-3.6V38.1z"/>
	</g>
	<g>
		<path class="st0" d="M203.1,44.5L203.1,44.5c0-3.7,2.9-6.7,6.9-6.7c3.9,0,6.9,2.9,6.9,6.6v0c0,3.7-2.9,6.6-6.9,6.6
			C206,51.1,203.1,48.2,203.1,44.5 M213.3,44.5L213.3,44.5c0-1.9-1.4-3.6-3.3-3.6c-2.1,0-3.3,1.6-3.3,3.5v0c0,1.9,1.4,3.5,3.3,3.5
			C212.1,48,213.3,46.4,213.3,44.5"/>
	</g>
	<g>
		<path class="st0" d="M219,38.1h3.6v1.8c0.8-1.1,1.9-2,3.7-2c2.7,0,4.3,1.8,4.3,4.7v8.2H227v-7.1c0-1.7-0.8-2.6-2.2-2.6
			c-1.4,0-2.3,0.9-2.3,2.6v7.1H219V38.1z"/>
	</g>
	<g>
		<path class="st0" d="M98.4,62.9h-1.5v-3h1.5v-0.8c0-1.4,0.3-2.4,1-3.1c0.7-0.7,1.6-1,2.9-1c1.1,0,1.9,0.1,2.6,0.4v3
			c-0.5-0.2-1-0.3-1.6-0.3c-0.8,0-1.3,0.4-1.3,1.4V60h2.9v2.9H102v9.6h-3.6V62.9z"/>
	</g>
	<g>
		<path class="st0" d="M105.5,66.3L105.5,66.3c0-3.7,2.9-6.7,6.9-6.7c3.9,0,6.9,2.9,6.9,6.6v0c0,3.7-2.9,6.6-6.9,6.6
			C108.4,72.9,105.5,69.9,105.5,66.3 M115.7,66.3L115.7,66.3c0-1.9-1.3-3.6-3.3-3.6c-2.1,0-3.3,1.6-3.3,3.5v0c0,1.9,1.4,3.5,3.3,3.5
			C114.5,69.8,115.7,68.2,115.7,66.3"/>
	</g>
	<g>
		<path class="st0" d="M121.4,59.9h3.6v2.6c0.7-1.8,1.9-2.9,4.1-2.8v3.8h-0.2c-2.4,0-3.9,1.5-3.9,4.5v4.7h-3.6V59.9z"/>
	</g>
	<g>
		<path class="st0" d="M137.1,69v-6h-1.5v-3.1h1.5v-3.3h3.6v3.3h3v3.1h-3v5.4c0,0.8,0.4,1.2,1.2,1.2c0.7,0,1.3-0.2,1.8-0.5v2.9
			c-0.8,0.4-1.6,0.7-2.8,0.7C138.6,72.8,137.1,71.9,137.1,69"/>
	</g>
	<g>
		<path class="st0" d="M145.9,55.3h3.6v6.4c0.8-1.1,1.9-2,3.7-2c2.7,0,4.3,1.8,4.3,4.7v8.2H154v-7.1c0-1.7-0.8-2.6-2.2-2.6
			c-1.4,0-2.3,0.9-2.3,2.6v7.1h-3.6V55.3z"/>
	</g>
	<g>
		<path class="st0" d="M159.6,66.3L159.6,66.3c0-3.7,2.6-6.7,6.3-6.7c4.2,0,6.2,3.3,6.2,6.9c0,0.3,0,0.6-0.1,1h-8.8
			c0.4,1.6,1.5,2.5,3.1,2.5c1.2,0,2.1-0.4,3.1-1.3l2.1,1.8c-1.2,1.5-2.9,2.4-5.2,2.4C162.4,72.9,159.6,70.2,159.6,66.3 M168.6,65.2
			c-0.2-1.6-1.2-2.7-2.7-2.7c-1.5,0-2.5,1.1-2.7,2.7H168.6z"/>
	</g>
	<g>
		<path class="st0" d="M180.8,56h7.7c1.9,0,3.4,0.5,4.3,1.5c0.8,0.8,1.1,1.7,1.1,2.8v0c0,1.9-1,2.9-2.2,3.6c1.9,0.7,3.1,1.9,3.1,4.1
			v0c0,3-2.5,4.6-6.2,4.6h-7.9V56z M187.8,62.7c1.6,0,2.6-0.5,2.6-1.8v0c0-1.1-0.9-1.7-2.4-1.7h-3.6v3.5H187.8z M188.7,69.4
			c1.6,0,2.6-0.6,2.6-1.8v0c0-1.1-0.8-1.8-2.7-1.8h-4.2v3.7H188.7z"/>
	</g>
	<g>
		<rect x="197.3" y="55.3" class="st0" width="3.6" height="17.3"/>
	</g>
	<g>
		<path class="st0" d="M203.9,55.3h3.8v3.2h-3.8V55.3z M204,59.9h3.6v12.7H204V59.9z"/>
	</g>
	<g>
		<path class="st0" d="M210.5,59.9h3.6v1.8c0.8-1.1,1.9-2,3.7-2c2.7,0,4.3,1.8,4.3,4.7v8.2h-3.6v-7.1c0-1.7-0.8-2.6-2.2-2.6
			c-1.4,0-2.3,0.9-2.3,2.6v7.1h-3.6V59.9z"/>
	</g>
	<g>
		<path class="st0" d="M224.2,66.2L224.2,66.2c0-4.3,2.8-6.6,5.8-6.6c1.9,0,3.1,0.9,4,1.9v-6.3h3.6v17.3H234v-1.8
			c-0.9,1.2-2.1,2.1-4,2.1C227.1,72.8,224.2,70.5,224.2,66.2 M234,66.2L234,66.2c0-2.2-1.4-3.6-3.1-3.6c-1.7,0-3.1,1.4-3.1,3.5v0
			c0,2.1,1.4,3.5,3.1,3.5C232.6,69.8,234,68.4,234,66.2"/>
	</g>
	<g>
		<path class="st0" d="M231.5,26.8c-4.3,0-7.7-3.5-7.7-7.7c0-4.3,3.5-7.7,7.7-7.7c4.3,0,7.7,3.5,7.7,7.7
			C239.2,23.3,235.8,26.8,231.5,26.8z M231.5,12.3c-3.7,0-6.7,3-6.7,6.7s3,6.7,6.7,6.7s6.7-3,6.7-6.7S235.2,12.3,231.5,12.3z"/>
	</g>
	<g>
		<path class="st0" d="M228.1,22.9v-7.8h3.3c0.8,0,1.4,0.1,1.8,0.2c0.4,0.1,0.7,0.4,0.9,0.7c0.2,0.4,0.3,0.8,0.3,1.2
			c0,0.6-0.2,1.1-0.5,1.5c-0.3,0.4-0.9,0.6-1.5,0.7c0.3,0.2,0.6,0.4,0.8,0.7c0.2,0.2,0.5,0.7,0.9,1.3l1,1.5h-1.9l-1.1-1.7
			c-0.4-0.6-0.7-1-0.8-1.1s-0.3-0.3-0.5-0.3s-0.4-0.1-0.8-0.1h-0.3v3.3H228.1z M229.7,18.4h1.2c0.8,0,1.2,0,1.4-0.1s0.3-0.2,0.4-0.3
			c0.1-0.2,0.2-0.4,0.2-0.6c0-0.3-0.1-0.5-0.2-0.6c-0.1-0.2-0.3-0.3-0.6-0.3c-0.1,0-0.5,0-1.2,0h-1.2V18.4z"/>
	</g>
	<g>
		<path class="st0" d="M59.2,97.5c1,0,1.8,0.3,2.3,0.8c0.6,0.6,0.9,1.3,0.9,2.3c0,0.9-0.2,1.7-0.6,2.4c-0.4,0.7-0.9,1.2-1.7,1.6
			c-0.7,0.4-1.6,0.5-2.7,0.5c-0.6,0-1.2-0.1-1.8-0.2c-0.5-0.1-1-0.3-1.3-0.5v-2.2c0.9,0.5,1.9,0.8,2.8,0.8c0.8,0,1.5-0.2,1.9-0.6
			c0.5-0.4,0.7-0.9,0.7-1.6c0-0.5-0.2-0.9-0.5-1.1c-0.3-0.3-0.8-0.4-1.3-0.4c-0.5,0-1.1,0.1-1.7,0.3L55.5,99l1.7-5.9h6.1l-0.4,2.1
			h-4l-0.7,2.4C58.5,97.5,58.9,97.5,59.2,97.5z"/>
	</g>
</g>
</svg>
